G04 start of page 12 for group -3984 idx -3984 *
G04 Title: (unknown), fab *
G04 Creator: pcb 20140316 *
G04 CreationDate: Thu 29 Nov 2018 09:53:53 PM GMT UTC *
G04 For: railfan *
G04 Format: Gerber/RS-274X *
G04 PCB-Dimensions (mil): 6340.00 1470.00 *
G04 PCB-Coordinate-Origin: lower left *
%MOIN*%
%FSLAX25Y25*%
%LNFAB*%
%ADD107C,0.0100*%
%ADD106C,0.0075*%
%ADD105C,0.0060*%
%ADD104R,0.0080X0.0080*%
G54D104*X15400Y131600D02*X18600D01*
X15400D02*Y128400D01*
X18600D01*
Y131600D02*Y128400D01*
X13800Y133200D02*X20200D01*
X13800D02*Y126800D01*
X20200D01*
Y133200D02*Y126800D01*
X15400Y56600D02*X18600D01*
X15400D02*Y53400D01*
X18600D01*
Y56600D02*Y53400D01*
X13800Y58200D02*X20200D01*
X13800D02*Y51800D01*
X20200D01*
Y58200D02*Y51800D01*
X615400Y131600D02*X618600D01*
X615400D02*Y128400D01*
X618600D01*
Y131600D02*Y128400D01*
X613800Y133200D02*X620200D01*
X613800D02*Y126800D01*
X620200D01*
Y133200D02*Y126800D01*
X615400Y56600D02*X618600D01*
X615400D02*Y53400D01*
X618600D01*
Y56600D02*Y53400D01*
X613800Y58200D02*X620200D01*
X613800D02*Y51800D01*
X620200D01*
Y58200D02*Y51800D01*
X315400Y56600D02*X318600D01*
X315400D02*Y53400D01*
X318600D01*
Y56600D02*Y53400D01*
X313800Y58200D02*X320200D01*
X313800D02*Y51800D01*
X320200D01*
Y58200D02*Y51800D01*
X315400Y131600D02*X318600D01*
X315400D02*Y128400D01*
X318600D01*
Y131600D02*Y128400D01*
X313800Y133200D02*X320200D01*
X313800D02*Y126800D01*
X320200D01*
Y133200D02*Y126800D01*
X13400Y159850D02*X16600D01*
X13400D02*Y156650D01*
X16600D01*
Y159850D02*Y156650D01*
X11800Y161450D02*X18200D01*
X11800D02*Y155050D01*
X18200D01*
Y161450D02*Y155050D01*
G54D105*X135000Y160500D02*X136500Y157500D01*
X138000Y160500D01*
X136500Y157500D02*Y154500D01*
X139800Y157800D02*X142050D01*
X139800Y154500D02*X142800D01*
X139800Y160500D02*Y154500D01*
Y160500D02*X142800D01*
X147600D02*X148350Y159750D01*
X145350Y160500D02*X147600D01*
X144600Y159750D02*X145350Y160500D01*
X144600Y159750D02*Y158250D01*
X145350Y157500D01*
X147600D01*
X148350Y156750D01*
Y155250D01*
X147600Y154500D02*X148350Y155250D01*
X145350Y154500D02*X147600D01*
X144600Y155250D02*X145350Y154500D01*
X100250Y160500D02*X101000Y159750D01*
X98750Y160500D02*X100250D01*
X98000Y159750D02*X98750Y160500D01*
X98000Y159750D02*Y155250D01*
X98750Y154500D01*
X100250Y157800D02*X101000Y157050D01*
X98000Y157800D02*X100250D01*
X98750Y154500D02*X100250D01*
X101000Y155250D01*
Y157050D02*Y155250D01*
X45000D02*X45750Y154500D01*
X45000Y159750D02*Y155250D01*
Y159750D02*X45750Y160500D01*
X47250D01*
X48000Y159750D01*
Y155250D01*
X47250Y154500D02*X48000Y155250D01*
X45750Y154500D02*X47250D01*
X45000Y156000D02*X48000Y159000D01*
X49800Y154500D02*X50550D01*
X52350Y159300D02*X53550Y160500D01*
Y154500D01*
X52350D02*X54600D01*
X56400Y159750D02*X57150Y160500D01*
X59400D01*
X60150Y159750D01*
Y158250D01*
X56400Y154500D02*X60150Y158250D01*
X56400Y154500D02*X60150D01*
X62700D02*X64950Y157500D01*
Y159750D02*Y157500D01*
X64200Y160500D02*X64950Y159750D01*
X62700Y160500D02*X64200D01*
X61950Y159750D02*X62700Y160500D01*
X61950Y159750D02*Y158250D01*
X62700Y157500D01*
X64950D01*
X44700Y32000D02*G75*G03X46300Y32000I800J0D01*G01*
G75*G03X44700Y32000I-800J0D01*G01*
X43100D02*G75*G03X47900Y32000I2400J0D01*G01*
G75*G03X43100Y32000I-2400J0D01*G01*
X84700D02*G75*G03X86300Y32000I800J0D01*G01*
G75*G03X84700Y32000I-800J0D01*G01*
X83100D02*G75*G03X87900Y32000I2400J0D01*G01*
G75*G03X83100Y32000I-2400J0D01*G01*
X534700Y115000D02*G75*G03X536300Y115000I800J0D01*G01*
G75*G03X534700Y115000I-800J0D01*G01*
X533100D02*G75*G03X537900Y115000I2400J0D01*G01*
G75*G03X533100Y115000I-2400J0D01*G01*
X494700D02*G75*G03X496300Y115000I800J0D01*G01*
G75*G03X494700Y115000I-800J0D01*G01*
X493100D02*G75*G03X497900Y115000I2400J0D01*G01*
G75*G03X493100Y115000I-2400J0D01*G01*
X123200Y32000D02*G75*G03X124800Y32000I800J0D01*G01*
G75*G03X123200Y32000I-800J0D01*G01*
X121600D02*G75*G03X126400Y32000I2400J0D01*G01*
G75*G03X121600Y32000I-2400J0D01*G01*
X163200D02*G75*G03X164800Y32000I800J0D01*G01*
G75*G03X163200Y32000I-800J0D01*G01*
X161600D02*G75*G03X166400Y32000I2400J0D01*G01*
G75*G03X161600Y32000I-2400J0D01*G01*
X163200Y115000D02*G75*G03X164800Y115000I800J0D01*G01*
G75*G03X163200Y115000I-800J0D01*G01*
X161600D02*G75*G03X166400Y115000I2400J0D01*G01*
G75*G03X161600Y115000I-2400J0D01*G01*
X123200D02*G75*G03X124800Y115000I800J0D01*G01*
G75*G03X123200Y115000I-800J0D01*G01*
X121600D02*G75*G03X126400Y115000I2400J0D01*G01*
G75*G03X121600Y115000I-2400J0D01*G01*
X223200D02*G75*G03X224800Y115000I800J0D01*G01*
G75*G03X223200Y115000I-800J0D01*G01*
X221600D02*G75*G03X226400Y115000I2400J0D01*G01*
G75*G03X221600Y115000I-2400J0D01*G01*
X183200D02*G75*G03X184800Y115000I800J0D01*G01*
G75*G03X183200Y115000I-800J0D01*G01*
X181600D02*G75*G03X186400Y115000I2400J0D01*G01*
G75*G03X181600Y115000I-2400J0D01*G01*
X183200Y32000D02*G75*G03X184800Y32000I800J0D01*G01*
G75*G03X183200Y32000I-800J0D01*G01*
X181600D02*G75*G03X186400Y32000I2400J0D01*G01*
G75*G03X181600Y32000I-2400J0D01*G01*
X223200D02*G75*G03X224800Y32000I800J0D01*G01*
G75*G03X223200Y32000I-800J0D01*G01*
X221600D02*G75*G03X226400Y32000I2400J0D01*G01*
G75*G03X221600Y32000I-2400J0D01*G01*
X283200Y115000D02*G75*G03X284800Y115000I800J0D01*G01*
G75*G03X283200Y115000I-800J0D01*G01*
X281600D02*G75*G03X286400Y115000I2400J0D01*G01*
G75*G03X281600Y115000I-2400J0D01*G01*
X243200D02*G75*G03X244800Y115000I800J0D01*G01*
G75*G03X243200Y115000I-800J0D01*G01*
X241600D02*G75*G03X246400Y115000I2400J0D01*G01*
G75*G03X241600Y115000I-2400J0D01*G01*
X243200Y32000D02*G75*G03X244800Y32000I800J0D01*G01*
G75*G03X243200Y32000I-800J0D01*G01*
X241600D02*G75*G03X246400Y32000I2400J0D01*G01*
G75*G03X241600Y32000I-2400J0D01*G01*
X283200D02*G75*G03X284800Y32000I800J0D01*G01*
G75*G03X283200Y32000I-800J0D01*G01*
X281600D02*G75*G03X286400Y32000I2400J0D01*G01*
G75*G03X281600Y32000I-2400J0D01*G01*
X14200Y173250D02*G75*G03X15800Y173250I800J0D01*G01*
G75*G03X14200Y173250I-800J0D01*G01*
X12600D02*G75*G03X17400Y173250I2400J0D01*G01*
G75*G03X12600Y173250I-2400J0D01*G01*
X135000Y175500D02*X136500Y172500D01*
X138000Y175500D01*
X136500Y172500D02*Y169500D01*
X139800Y172800D02*X142050D01*
X139800Y169500D02*X142800D01*
X139800Y175500D02*Y169500D01*
Y175500D02*X142800D01*
X147600D02*X148350Y174750D01*
X145350Y175500D02*X147600D01*
X144600Y174750D02*X145350Y175500D01*
X144600Y174750D02*Y173250D01*
X145350Y172500D01*
X147600D01*
X148350Y171750D01*
Y170250D01*
X147600Y169500D02*X148350Y170250D01*
X145350Y169500D02*X147600D01*
X144600Y170250D02*X145350Y169500D01*
X98000Y174300D02*X99200Y175500D01*
Y169500D01*
X98000D02*X100250D01*
X104300Y175500D02*X105050Y174750D01*
X102800Y175500D02*X104300D01*
X102050Y174750D02*X102800Y175500D01*
X102050Y174750D02*Y170250D01*
X102800Y169500D01*
X104300Y172800D02*X105050Y172050D01*
X102050Y172800D02*X104300D01*
X102800Y169500D02*X104300D01*
X105050Y170250D01*
Y172050D02*Y170250D01*
X45000D02*X45750Y169500D01*
X45000Y174750D02*Y170250D01*
Y174750D02*X45750Y175500D01*
X47250D01*
X48000Y174750D01*
Y170250D01*
X47250Y169500D02*X48000Y170250D01*
X45750Y169500D02*X47250D01*
X45000Y171000D02*X48000Y174000D01*
X49800Y169500D02*X50550D01*
X52350Y174300D02*X53550Y175500D01*
Y169500D01*
X52350D02*X54600D01*
X56400Y174750D02*X57150Y175500D01*
X59400D01*
X60150Y174750D01*
Y173250D01*
X56400Y169500D02*X60150Y173250D01*
X56400Y169500D02*X60150D01*
X61950Y170250D02*X62700Y169500D01*
X61950Y171450D02*Y170250D01*
Y171450D02*X63000Y172500D01*
X63900D01*
X64950Y171450D01*
Y170250D01*
X64200Y169500D02*X64950Y170250D01*
X62700Y169500D02*X64200D01*
X61950Y173550D02*X63000Y172500D01*
X61950Y174750D02*Y173550D01*
Y174750D02*X62700Y175500D01*
X64200D01*
X64950Y174750D01*
Y173550D01*
X63900Y172500D02*X64950Y173550D01*
X570100Y95400D02*X574900Y90600D01*
X570100D02*X574900Y95400D01*
X570900Y94600D02*X574100D01*
X570900D02*Y91400D01*
X574100D01*
Y94600D02*Y91400D01*
X12600Y190650D02*X17400Y185850D01*
X12600D02*X17400Y190650D01*
X13400Y189850D02*X16600D01*
X13400D02*Y186650D01*
X16600D01*
Y189850D02*Y186650D01*
X135000Y190500D02*X136500Y187500D01*
X138000Y190500D01*
X136500Y187500D02*Y184500D01*
X139800Y187800D02*X142050D01*
X139800Y184500D02*X142800D01*
X139800Y190500D02*Y184500D01*
Y190500D02*X142800D01*
X147600D02*X148350Y189750D01*
X145350Y190500D02*X147600D01*
X144600Y189750D02*X145350Y190500D01*
X144600Y189750D02*Y188250D01*
X145350Y187500D01*
X147600D01*
X148350Y186750D01*
Y185250D01*
X147600Y184500D02*X148350Y185250D01*
X145350Y184500D02*X147600D01*
X144600Y185250D02*X145350Y184500D01*
X98000Y189300D02*X99200Y190500D01*
Y184500D01*
X98000D02*X100250D01*
X45000Y185250D02*X45750Y184500D01*
X45000Y189750D02*Y185250D01*
Y189750D02*X45750Y190500D01*
X47250D01*
X48000Y189750D01*
Y185250D01*
X47250Y184500D02*X48000Y185250D01*
X45750Y184500D02*X47250D01*
X45000Y186000D02*X48000Y189000D01*
X49800Y184500D02*X50550D01*
X52350Y189300D02*X53550Y190500D01*
Y184500D01*
X52350D02*X54600D01*
X56400Y189750D02*X57150Y190500D01*
X59400D01*
X60150Y189750D01*
Y188250D01*
X56400Y184500D02*X60150Y188250D01*
X56400Y184500D02*X60150D01*
X61950Y190500D02*X64950D01*
X61950D02*Y187500D01*
X62700Y188250D01*
X64200D01*
X64950Y187500D01*
Y185250D01*
X64200Y184500D02*X64950Y185250D01*
X62700Y184500D02*X64200D01*
X61950Y185250D02*X62700Y184500D01*
X572500Y120200D02*Y113800D01*
X569300Y117000D02*X575700D01*
X570900Y118600D02*X574100D01*
X570900D02*Y115400D01*
X574100D01*
Y118600D02*Y115400D01*
X553500Y108200D02*Y101800D01*
X550300Y105000D02*X556700D01*
X551900Y106600D02*X555100D01*
X551900D02*Y103400D01*
X555100D01*
Y106600D02*Y103400D01*
X15000Y206450D02*Y200050D01*
X11800Y203250D02*X18200D01*
X13400Y204850D02*X16600D01*
X13400D02*Y201650D01*
X16600D01*
Y204850D02*Y201650D01*
X135000Y205500D02*X136500Y202500D01*
X138000Y205500D01*
X136500Y202500D02*Y199500D01*
X139800Y202800D02*X142050D01*
X139800Y199500D02*X142800D01*
X139800Y205500D02*Y199500D01*
Y205500D02*X142800D01*
X147600D02*X148350Y204750D01*
X145350Y205500D02*X147600D01*
X144600Y204750D02*X145350Y205500D01*
X144600Y204750D02*Y203250D01*
X145350Y202500D01*
X147600D01*
X148350Y201750D01*
Y200250D01*
X147600Y199500D02*X148350Y200250D01*
X145350Y199500D02*X147600D01*
X144600Y200250D02*X145350Y199500D01*
X98000Y204750D02*X98750Y205500D01*
X101000D01*
X101750Y204750D01*
Y203250D01*
X98000Y199500D02*X101750Y203250D01*
X98000Y199500D02*X101750D01*
X45000Y200250D02*X45750Y199500D01*
X45000Y204750D02*Y200250D01*
Y204750D02*X45750Y205500D01*
X47250D01*
X48000Y204750D01*
Y200250D01*
X47250Y199500D02*X48000Y200250D01*
X45750Y199500D02*X47250D01*
X45000Y201000D02*X48000Y204000D01*
X49800Y199500D02*X50550D01*
X52350Y204300D02*X53550Y205500D01*
Y199500D01*
X52350D02*X54600D01*
X56400Y204300D02*X57600Y205500D01*
Y199500D01*
X56400D02*X58650D01*
X60450Y200250D02*X61200Y199500D01*
X60450Y204750D02*Y200250D01*
Y204750D02*X61200Y205500D01*
X62700D01*
X63450Y204750D01*
Y200250D01*
X62700Y199500D02*X63450Y200250D01*
X61200Y199500D02*X62700D01*
X60450Y201000D02*X63450Y204000D01*
X75500Y126000D02*Y122800D01*
Y126000D02*X78273Y127600D01*
X75500Y126000D02*X72727Y127600D01*
X73900Y126000D02*G75*G03X77100Y126000I1600J0D01*G01*
G75*G03X73900Y126000I-1600J0D01*G01*
X55500D02*Y122800D01*
Y126000D02*X58273Y127600D01*
X55500Y126000D02*X52727Y127600D01*
X53900Y126000D02*G75*G03X57100Y126000I1600J0D01*G01*
G75*G03X53900Y126000I-1600J0D01*G01*
X473500D02*Y122800D01*
Y126000D02*X476273Y127600D01*
X473500Y126000D02*X470727Y127600D01*
X471900Y126000D02*G75*G03X475100Y126000I1600J0D01*G01*
G75*G03X471900Y126000I-1600J0D01*G01*
X453500D02*Y122800D01*
Y126000D02*X456273Y127600D01*
X453500Y126000D02*X450727Y127600D01*
X451900Y126000D02*G75*G03X455100Y126000I1600J0D01*G01*
G75*G03X451900Y126000I-1600J0D01*G01*
X15000Y218250D02*Y215050D01*
Y218250D02*X17773Y219850D01*
X15000Y218250D02*X12227Y219850D01*
X13400Y218250D02*G75*G03X16600Y218250I1600J0D01*G01*
G75*G03X13400Y218250I-1600J0D01*G01*
X135000Y220500D02*X136500Y217500D01*
X138000Y220500D01*
X136500Y217500D02*Y214500D01*
X139800Y217800D02*X142050D01*
X139800Y214500D02*X142800D01*
X139800Y220500D02*Y214500D01*
Y220500D02*X142800D01*
X147600D02*X148350Y219750D01*
X145350Y220500D02*X147600D01*
X144600Y219750D02*X145350Y220500D01*
X144600Y219750D02*Y218250D01*
X145350Y217500D01*
X147600D01*
X148350Y216750D01*
Y215250D01*
X147600Y214500D02*X148350Y215250D01*
X145350Y214500D02*X147600D01*
X144600Y215250D02*X145350Y214500D01*
X98000Y216750D02*X101000Y220500D01*
X98000Y216750D02*X101750D01*
X101000Y220500D02*Y214500D01*
X45000Y215250D02*X45750Y214500D01*
X45000Y219750D02*Y215250D01*
Y219750D02*X45750Y220500D01*
X47250D01*
X48000Y219750D01*
Y215250D01*
X47250Y214500D02*X48000Y215250D01*
X45750Y214500D02*X47250D01*
X45000Y216000D02*X48000Y219000D01*
X49800Y214500D02*X50550D01*
X52350Y215250D02*X53100Y214500D01*
X52350Y219750D02*Y215250D01*
Y219750D02*X53100Y220500D01*
X54600D01*
X55350Y219750D01*
Y215250D01*
X54600Y214500D02*X55350Y215250D01*
X53100Y214500D02*X54600D01*
X52350Y216000D02*X55350Y219000D01*
X57150Y216750D02*X60150Y220500D01*
X57150Y216750D02*X60900D01*
X60150Y220500D02*Y214500D01*
X62700Y215250D02*X63450Y214500D01*
X62700Y216450D02*Y215250D01*
Y216450D02*X63750Y217500D01*
X64650D01*
X65700Y216450D01*
Y215250D01*
X64950Y214500D02*X65700Y215250D01*
X63450Y214500D02*X64950D01*
X62700Y218550D02*X63750Y217500D01*
X62700Y219750D02*Y218550D01*
Y219750D02*X63450Y220500D01*
X64950D01*
X65700Y219750D01*
Y218550D01*
X64650Y217500D02*X65700Y218550D01*
X518900Y34600D02*X522100D01*
X518900D02*Y31400D01*
X522100D01*
Y34600D02*Y31400D01*
X528900Y34600D02*X532100D01*
X528900D02*Y31400D01*
X532100D01*
Y34600D02*Y31400D01*
X538900Y34600D02*X542100D01*
X538900D02*Y31400D01*
X542100D01*
Y34600D02*Y31400D01*
X13400Y234850D02*X16600D01*
X13400D02*Y231650D01*
X16600D01*
Y234850D02*Y231650D01*
X135000Y235500D02*X136500Y232500D01*
X138000Y235500D01*
X136500Y232500D02*Y229500D01*
X139800Y232800D02*X142050D01*
X139800Y229500D02*X142800D01*
X139800Y235500D02*Y229500D01*
Y235500D02*X142800D01*
X147600D02*X148350Y234750D01*
X145350Y235500D02*X147600D01*
X144600Y234750D02*X145350Y235500D01*
X144600Y234750D02*Y233250D01*
X145350Y232500D01*
X147600D01*
X148350Y231750D01*
Y230250D01*
X147600Y229500D02*X148350Y230250D01*
X145350Y229500D02*X147600D01*
X144600Y230250D02*X145350Y229500D01*
X98000Y234750D02*X98750Y235500D01*
X100250D01*
X101000Y234750D01*
X100250Y229500D02*X101000Y230250D01*
X98750Y229500D02*X100250D01*
X98000Y230250D02*X98750Y229500D01*
Y232800D02*X100250D01*
X101000Y234750D02*Y233550D01*
Y232050D02*Y230250D01*
Y232050D02*X100250Y232800D01*
X101000Y233550D02*X100250Y232800D01*
X45000Y230250D02*X45750Y229500D01*
X45000Y234750D02*Y230250D01*
Y234750D02*X45750Y235500D01*
X47250D01*
X48000Y234750D01*
Y230250D01*
X47250Y229500D02*X48000Y230250D01*
X45750Y229500D02*X47250D01*
X45000Y231000D02*X48000Y234000D01*
X49800Y229500D02*X50550D01*
X52350Y230250D02*X53100Y229500D01*
X52350Y234750D02*Y230250D01*
Y234750D02*X53100Y235500D01*
X54600D01*
X55350Y234750D01*
Y230250D01*
X54600Y229500D02*X55350Y230250D01*
X53100Y229500D02*X54600D01*
X52350Y231000D02*X55350Y234000D01*
X57150Y231750D02*X60150Y235500D01*
X57150Y231750D02*X60900D01*
X60150Y235500D02*Y229500D01*
X62700Y235500D02*X65700D01*
X62700D02*Y232500D01*
X63450Y233250D01*
X64950D01*
X65700Y232500D01*
Y230250D01*
X64950Y229500D02*X65700Y230250D01*
X63450Y229500D02*X64950D01*
X62700Y230250D02*X63450Y229500D01*
X89700Y101500D02*G75*G03X91300Y101500I800J0D01*G01*
G75*G03X89700Y101500I-800J0D01*G01*
X39700D02*G75*G03X41300Y101500I800J0D01*G01*
G75*G03X39700Y101500I-800J0D01*G01*
X14200Y248250D02*G75*G03X15800Y248250I800J0D01*G01*
G75*G03X14200Y248250I-800J0D01*G01*
X135000Y250500D02*X136500Y247500D01*
X138000Y250500D01*
X136500Y247500D02*Y244500D01*
X139800Y247800D02*X142050D01*
X139800Y244500D02*X142800D01*
X139800Y250500D02*Y244500D01*
Y250500D02*X142800D01*
X147600D02*X148350Y249750D01*
X145350Y250500D02*X147600D01*
X144600Y249750D02*X145350Y250500D01*
X144600Y249750D02*Y248250D01*
X145350Y247500D01*
X147600D01*
X148350Y246750D01*
Y245250D01*
X147600Y244500D02*X148350Y245250D01*
X145350Y244500D02*X147600D01*
X144600Y245250D02*X145350Y244500D01*
X98000Y249750D02*X98750Y250500D01*
X101000D01*
X101750Y249750D01*
Y248250D01*
X98000Y244500D02*X101750Y248250D01*
X98000Y244500D02*X101750D01*
X45000Y245250D02*X45750Y244500D01*
X45000Y249750D02*Y245250D01*
Y249750D02*X45750Y250500D01*
X47250D01*
X48000Y249750D01*
Y245250D01*
X47250Y244500D02*X48000Y245250D01*
X45750Y244500D02*X47250D01*
X45000Y246000D02*X48000Y249000D01*
X49800Y244500D02*X50550D01*
X52350Y245250D02*X53100Y244500D01*
X52350Y249750D02*Y245250D01*
Y249750D02*X53100Y250500D01*
X54600D01*
X55350Y249750D01*
Y245250D01*
X54600Y244500D02*X55350Y245250D01*
X53100Y244500D02*X54600D01*
X52350Y246000D02*X55350Y249000D01*
X57150Y246750D02*X60150Y250500D01*
X57150Y246750D02*X60900D01*
X60150Y250500D02*Y244500D01*
X62700Y249750D02*X63450Y250500D01*
X65700D01*
X66450Y249750D01*
Y248250D01*
X62700Y244500D02*X66450Y248250D01*
X62700Y244500D02*X66450D01*
X424800Y60200D02*X427200Y57800D01*
X424800D02*X427200Y60200D01*
X424800Y90200D02*X427200Y87800D01*
X424800D02*X427200Y90200D01*
X424800Y110200D02*X427200Y107800D01*
X424800D02*X427200Y110200D01*
X424800Y130200D02*X427200Y127800D01*
X424800D02*X427200Y130200D01*
X394800D02*X397200Y127800D01*
X394800D02*X397200Y130200D01*
X394800Y110200D02*X397200Y107800D01*
X394800D02*X397200Y110200D01*
X394800Y90200D02*X397200Y87800D01*
X394800D02*X397200Y90200D01*
X394800Y60200D02*X397200Y57800D01*
X394800D02*X397200Y60200D01*
X380800D02*X383200Y57800D01*
X380800D02*X383200Y60200D01*
X380800Y90200D02*X383200Y87800D01*
X380800D02*X383200Y90200D01*
X380800Y110200D02*X383200Y107800D01*
X380800D02*X383200Y110200D01*
X380800Y130200D02*X383200Y127800D01*
X380800D02*X383200Y130200D01*
X350800D02*X353200Y127800D01*
X350800D02*X353200Y130200D01*
X350800Y110200D02*X353200Y107800D01*
X350800D02*X353200Y110200D01*
X350800Y90200D02*X353200Y87800D01*
X350800D02*X353200Y90200D01*
X350800Y60200D02*X353200Y57800D01*
X350800D02*X353200Y60200D01*
X13800Y264450D02*X16200Y262050D01*
X13800D02*X16200Y264450D01*
X135000Y265500D02*X136500Y262500D01*
X138000Y265500D01*
X136500Y262500D02*Y259500D01*
X139800Y262800D02*X142050D01*
X139800Y259500D02*X142800D01*
X139800Y265500D02*Y259500D01*
Y265500D02*X142800D01*
X147600D02*X148350Y264750D01*
X145350Y265500D02*X147600D01*
X144600Y264750D02*X145350Y265500D01*
X144600Y264750D02*Y263250D01*
X145350Y262500D01*
X147600D01*
X148350Y261750D01*
Y260250D01*
X147600Y259500D02*X148350Y260250D01*
X145350Y259500D02*X147600D01*
X144600Y260250D02*X145350Y259500D01*
X98000Y264300D02*X99200Y265500D01*
Y259500D01*
X98000D02*X100250D01*
X104300Y265500D02*X105050Y264750D01*
X102800Y265500D02*X104300D01*
X102050Y264750D02*X102800Y265500D01*
X102050Y264750D02*Y260250D01*
X102800Y259500D01*
X104300Y262800D02*X105050Y262050D01*
X102050Y262800D02*X104300D01*
X102800Y259500D02*X104300D01*
X105050Y260250D01*
Y262050D02*Y260250D01*
X45000D02*X45750Y259500D01*
X45000Y264750D02*Y260250D01*
Y264750D02*X45750Y265500D01*
X47250D01*
X48000Y264750D01*
Y260250D01*
X47250Y259500D02*X48000Y260250D01*
X45750Y259500D02*X47250D01*
X45000Y261000D02*X48000Y264000D01*
X49800Y259500D02*X50550D01*
X52350Y260250D02*X53100Y259500D01*
X52350Y264750D02*Y260250D01*
Y264750D02*X53100Y265500D01*
X54600D01*
X55350Y264750D01*
Y260250D01*
X54600Y259500D02*X55350Y260250D01*
X53100Y259500D02*X54600D01*
X52350Y261000D02*X55350Y264000D01*
X57150Y264750D02*X57900Y265500D01*
X59400D01*
X60150Y264750D01*
X59400Y259500D02*X60150Y260250D01*
X57900Y259500D02*X59400D01*
X57150Y260250D02*X57900Y259500D01*
Y262800D02*X59400D01*
X60150Y264750D02*Y263550D01*
Y262050D02*Y260250D01*
Y262050D02*X59400Y262800D01*
X60150Y263550D02*X59400Y262800D01*
X61950Y260250D02*X62700Y259500D01*
X61950Y261450D02*Y260250D01*
Y261450D02*X63000Y262500D01*
X63900D01*
X64950Y261450D01*
Y260250D01*
X64200Y259500D02*X64950Y260250D01*
X62700Y259500D02*X64200D01*
X61950Y263550D02*X63000Y262500D01*
X61950Y264750D02*Y263550D01*
Y264750D02*X62700Y265500D01*
X64200D01*
X64950Y264750D01*
Y263550D01*
X63900Y262500D02*X64950Y263550D01*
X53000Y68600D02*Y65400D01*
X51400Y67000D02*X54600D01*
X58000Y58600D02*Y55400D01*
X56400Y57000D02*X59600D01*
X63000Y68600D02*Y65400D01*
X61400Y67000D02*X64600D01*
X68000Y58600D02*Y55400D01*
X66400Y57000D02*X69600D01*
X73000Y68600D02*Y65400D01*
X71400Y67000D02*X74600D01*
X78000Y58600D02*Y55400D01*
X76400Y57000D02*X79600D01*
X528000Y81600D02*Y78400D01*
X526400Y80000D02*X529600D01*
X523000Y91600D02*Y88400D01*
X521400Y90000D02*X524600D01*
X518000Y81600D02*Y78400D01*
X516400Y80000D02*X519600D01*
X513000Y91600D02*Y88400D01*
X511400Y90000D02*X514600D01*
X508000Y81600D02*Y78400D01*
X506400Y80000D02*X509600D01*
X503000Y91600D02*Y88400D01*
X501400Y90000D02*X504600D01*
X131500Y68600D02*Y65400D01*
X129900Y67000D02*X133100D01*
X136500Y58600D02*Y55400D01*
X134900Y57000D02*X138100D01*
X141500Y68600D02*Y65400D01*
X139900Y67000D02*X143100D01*
X146500Y58600D02*Y55400D01*
X144900Y57000D02*X148100D01*
X151500Y68600D02*Y65400D01*
X149900Y67000D02*X153100D01*
X156500Y58600D02*Y55400D01*
X154900Y57000D02*X158100D01*
X156500Y81600D02*Y78400D01*
X154900Y80000D02*X158100D01*
X151500Y91600D02*Y88400D01*
X149900Y90000D02*X153100D01*
X146500Y81600D02*Y78400D01*
X144900Y80000D02*X148100D01*
X141500Y91600D02*Y88400D01*
X139900Y90000D02*X143100D01*
X136500Y81600D02*Y78400D01*
X134900Y80000D02*X138100D01*
X131500Y91600D02*Y88400D01*
X129900Y90000D02*X133100D01*
X216500Y81600D02*Y78400D01*
X214900Y80000D02*X218100D01*
X211500Y91600D02*Y88400D01*
X209900Y90000D02*X213100D01*
X206500Y81600D02*Y78400D01*
X204900Y80000D02*X208100D01*
X201500Y91600D02*Y88400D01*
X199900Y90000D02*X203100D01*
X196500Y81600D02*Y78400D01*
X194900Y80000D02*X198100D01*
X191500Y91600D02*Y88400D01*
X189900Y90000D02*X193100D01*
X191500Y68600D02*Y65400D01*
X189900Y67000D02*X193100D01*
X196500Y58600D02*Y55400D01*
X194900Y57000D02*X198100D01*
X201500Y68600D02*Y65400D01*
X199900Y67000D02*X203100D01*
X206500Y58600D02*Y55400D01*
X204900Y57000D02*X208100D01*
X211500Y68600D02*Y65400D01*
X209900Y67000D02*X213100D01*
X216500Y58600D02*Y55400D01*
X214900Y57000D02*X218100D01*
X276500Y81600D02*Y78400D01*
X274900Y80000D02*X278100D01*
X271500Y91600D02*Y88400D01*
X269900Y90000D02*X273100D01*
X266500Y81600D02*Y78400D01*
X264900Y80000D02*X268100D01*
X261500Y91600D02*Y88400D01*
X259900Y90000D02*X263100D01*
X256500Y81600D02*Y78400D01*
X254900Y80000D02*X258100D01*
X251500Y91600D02*Y88400D01*
X249900Y90000D02*X253100D01*
X251500Y68600D02*Y65400D01*
X249900Y67000D02*X253100D01*
X256500Y58600D02*Y55400D01*
X254900Y57000D02*X258100D01*
X261500Y68600D02*Y65400D01*
X259900Y67000D02*X263100D01*
X266500Y58600D02*Y55400D01*
X264900Y57000D02*X268100D01*
X271500Y68600D02*Y65400D01*
X269900Y67000D02*X273100D01*
X276500Y58600D02*Y55400D01*
X274900Y57000D02*X278100D01*
X15000Y279850D02*Y276650D01*
X13400Y278250D02*X16600D01*
X135000Y280500D02*X136500Y277500D01*
X138000Y280500D01*
X136500Y277500D02*Y274500D01*
X139800Y277800D02*X142050D01*
X139800Y274500D02*X142800D01*
X139800Y280500D02*Y274500D01*
Y280500D02*X142800D01*
X147600D02*X148350Y279750D01*
X145350Y280500D02*X147600D01*
X144600Y279750D02*X145350Y280500D01*
X144600Y279750D02*Y278250D01*
X145350Y277500D01*
X147600D01*
X148350Y276750D01*
Y275250D01*
X147600Y274500D02*X148350Y275250D01*
X145350Y274500D02*X147600D01*
X144600Y275250D02*X145350Y274500D01*
X98000Y276750D02*X101000Y280500D01*
X98000Y276750D02*X101750D01*
X101000Y280500D02*Y274500D01*
X103550Y275250D02*X104300Y274500D01*
X103550Y276450D02*Y275250D01*
Y276450D02*X104600Y277500D01*
X105500D01*
X106550Y276450D01*
Y275250D01*
X105800Y274500D02*X106550Y275250D01*
X104300Y274500D02*X105800D01*
X103550Y278550D02*X104600Y277500D01*
X103550Y279750D02*Y278550D01*
Y279750D02*X104300Y280500D01*
X105800D01*
X106550Y279750D01*
Y278550D01*
X105500Y277500D02*X106550Y278550D01*
X45000Y275250D02*X45750Y274500D01*
X45000Y279750D02*Y275250D01*
Y279750D02*X45750Y280500D01*
X47250D01*
X48000Y279750D01*
Y275250D01*
X47250Y274500D02*X48000Y275250D01*
X45750Y274500D02*X47250D01*
X45000Y276000D02*X48000Y279000D01*
X49800Y274500D02*X50550D01*
X52350Y275250D02*X53100Y274500D01*
X52350Y279750D02*Y275250D01*
Y279750D02*X53100Y280500D01*
X54600D01*
X55350Y279750D01*
Y275250D01*
X54600Y274500D02*X55350Y275250D01*
X53100Y274500D02*X54600D01*
X52350Y276000D02*X55350Y279000D01*
X57150Y279750D02*X57900Y280500D01*
X59400D01*
X60150Y279750D01*
X59400Y274500D02*X60150Y275250D01*
X57900Y274500D02*X59400D01*
X57150Y275250D02*X57900Y274500D01*
Y277800D02*X59400D01*
X60150Y279750D02*Y278550D01*
Y277050D02*Y275250D01*
Y277050D02*X59400Y277800D01*
X60150Y278550D02*X59400Y277800D01*
X61950Y275250D02*X62700Y274500D01*
X61950Y279750D02*Y275250D01*
Y279750D02*X62700Y280500D01*
X64200D01*
X64950Y279750D01*
Y275250D01*
X64200Y274500D02*X64950Y275250D01*
X62700Y274500D02*X64200D01*
X61950Y276000D02*X64950Y279000D01*
X63000Y51000D02*Y49400D01*
Y51000D02*X64387Y51800D01*
X63000Y51000D02*X61613Y51800D01*
X68000Y47500D02*Y45900D01*
Y47500D02*X69387Y48300D01*
X68000Y47500D02*X66613Y48300D01*
X535500Y62500D02*Y60900D01*
Y62500D02*X536887Y63300D01*
X535500Y62500D02*X534113Y63300D01*
X541000Y62500D02*Y60900D01*
Y62500D02*X542387Y63300D01*
X541000Y62500D02*X539613Y63300D01*
X541000Y57000D02*Y55400D01*
Y57000D02*X542387Y57800D01*
X541000Y57000D02*X539613Y57800D01*
X535500Y57000D02*Y55400D01*
Y57000D02*X536887Y57800D01*
X535500Y57000D02*X534113Y57800D01*
X535500Y51500D02*Y49900D01*
Y51500D02*X536887Y52300D01*
X535500Y51500D02*X534113Y52300D01*
X541000Y51500D02*Y49900D01*
Y51500D02*X542387Y52300D01*
X541000Y51500D02*X539613Y52300D01*
X535500Y46000D02*Y44400D01*
Y46000D02*X536887Y46800D01*
X535500Y46000D02*X534113Y46800D01*
X541000Y46000D02*Y44400D01*
Y46000D02*X542387Y46800D01*
X541000Y46000D02*X539613Y46800D01*
X530000Y51500D02*Y49900D01*
Y51500D02*X531387Y52300D01*
X530000Y51500D02*X528613Y52300D01*
X530000Y46000D02*Y44400D01*
Y46000D02*X531387Y46800D01*
X530000Y46000D02*X528613Y46800D01*
X546500Y51500D02*Y49900D01*
Y51500D02*X547887Y52300D01*
X546500Y51500D02*X545113Y52300D01*
X546500Y46000D02*Y44400D01*
Y46000D02*X547887Y46800D01*
X546500Y46000D02*X545113Y46800D01*
X513000Y73000D02*Y71400D01*
Y73000D02*X514387Y73800D01*
X513000Y73000D02*X511613Y73800D01*
X518000Y69500D02*Y67900D01*
Y69500D02*X519387Y70300D01*
X518000Y69500D02*X516613Y70300D01*
X84500Y54500D02*Y52900D01*
Y54500D02*X85887Y55300D01*
X84500Y54500D02*X83113Y55300D01*
X467000Y52000D02*Y50400D01*
Y52000D02*X468387Y52800D01*
X467000Y52000D02*X465613Y52800D01*
X172000Y51000D02*Y49400D01*
Y51000D02*X173387Y51800D01*
X172000Y51000D02*X170613Y51800D01*
X175500Y47500D02*Y45900D01*
Y47500D02*X176887Y48300D01*
X175500Y47500D02*X174113Y48300D01*
X172000Y96000D02*Y94400D01*
Y96000D02*X173387Y96800D01*
X172000Y96000D02*X170613Y96800D01*
X176000Y99500D02*Y97900D01*
Y99500D02*X177387Y100300D01*
X176000Y99500D02*X174613Y100300D01*
X261500Y51000D02*Y49400D01*
Y51000D02*X262887Y51800D01*
X261500Y51000D02*X260113Y51800D01*
X266500Y47500D02*Y45900D01*
Y47500D02*X267887Y48300D01*
X266500Y47500D02*X265113Y48300D01*
X491500Y52000D02*Y50400D01*
Y52000D02*X492887Y52800D01*
X491500Y52000D02*X490113Y52800D01*
X496000Y52000D02*Y50400D01*
Y52000D02*X497387Y52800D01*
X496000Y52000D02*X494613Y52800D01*
X496000Y47500D02*Y45900D01*
Y47500D02*X497387Y48300D01*
X496000Y47500D02*X494613Y48300D01*
X491500Y47500D02*Y45900D01*
Y47500D02*X492887Y48300D01*
X491500Y47500D02*X490113Y48300D01*
X89000Y54500D02*Y52900D01*
Y54500D02*X90387Y55300D01*
X89000Y54500D02*X87613Y55300D01*
X201500Y51000D02*Y49400D01*
Y51000D02*X202887Y51800D01*
X201500Y51000D02*X200113Y51800D01*
X206500Y47500D02*Y45900D01*
Y47500D02*X207887Y48300D01*
X206500Y47500D02*X205113Y48300D01*
X141500Y51000D02*Y49400D01*
Y51000D02*X142887Y51800D01*
X141500Y51000D02*X140113Y51800D01*
X146500Y47500D02*Y45900D01*
Y47500D02*X147887Y48300D01*
X146500Y47500D02*X145113Y48300D01*
X141500Y99500D02*Y97900D01*
Y99500D02*X142887Y100300D01*
X141500Y99500D02*X140113Y100300D01*
X146500Y96000D02*Y94400D01*
Y96000D02*X147887Y96800D01*
X146500Y96000D02*X145113Y96800D01*
X201500Y99500D02*Y97900D01*
Y99500D02*X202887Y100300D01*
X201500Y99500D02*X200113Y100300D01*
X206500Y96000D02*Y94400D01*
Y96000D02*X207887Y96800D01*
X206500Y96000D02*X205113Y96800D01*
X261500Y99500D02*Y97900D01*
Y99500D02*X262887Y100300D01*
X261500Y99500D02*X260113Y100300D01*
X266500Y96000D02*Y94400D01*
Y96000D02*X267887Y96800D01*
X266500Y96000D02*X265113Y96800D01*
X15000Y293250D02*Y291650D01*
Y293250D02*X16387Y294050D01*
X15000Y293250D02*X13613Y294050D01*
X135000Y295500D02*X136500Y292500D01*
X138000Y295500D01*
X136500Y292500D02*Y289500D01*
X139800Y292800D02*X142050D01*
X139800Y289500D02*X142800D01*
X139800Y295500D02*Y289500D01*
Y295500D02*X142800D01*
X147600D02*X148350Y294750D01*
X145350Y295500D02*X147600D01*
X144600Y294750D02*X145350Y295500D01*
X144600Y294750D02*Y293250D01*
X145350Y292500D01*
X147600D01*
X148350Y291750D01*
Y290250D01*
X147600Y289500D02*X148350Y290250D01*
X145350Y289500D02*X147600D01*
X144600Y290250D02*X145350Y289500D01*
X98000Y294750D02*X98750Y295500D01*
X100250D01*
X101000Y294750D01*
X100250Y289500D02*X101000Y290250D01*
X98750Y289500D02*X100250D01*
X98000Y290250D02*X98750Y289500D01*
Y292800D02*X100250D01*
X101000Y294750D02*Y293550D01*
Y292050D02*Y290250D01*
Y292050D02*X100250Y292800D01*
X101000Y293550D02*X100250Y292800D01*
X103550Y289500D02*X105800Y292500D01*
Y294750D02*Y292500D01*
X105050Y295500D02*X105800Y294750D01*
X103550Y295500D02*X105050D01*
X102800Y294750D02*X103550Y295500D01*
X102800Y294750D02*Y293250D01*
X103550Y292500D01*
X105800D01*
X45000Y290250D02*X45750Y289500D01*
X45000Y294750D02*Y290250D01*
Y294750D02*X45750Y295500D01*
X47250D01*
X48000Y294750D01*
Y290250D01*
X47250Y289500D02*X48000Y290250D01*
X45750Y289500D02*X47250D01*
X45000Y291000D02*X48000Y294000D01*
X49800Y289500D02*X50550D01*
X52350Y290250D02*X53100Y289500D01*
X52350Y294750D02*Y290250D01*
Y294750D02*X53100Y295500D01*
X54600D01*
X55350Y294750D01*
Y290250D01*
X54600Y289500D02*X55350Y290250D01*
X53100Y289500D02*X54600D01*
X52350Y291000D02*X55350Y294000D01*
X57150Y294750D02*X57900Y295500D01*
X60150D01*
X60900Y294750D01*
Y293250D01*
X57150Y289500D02*X60900Y293250D01*
X57150Y289500D02*X60900D01*
X62700Y290250D02*X63450Y289500D01*
X62700Y294750D02*Y290250D01*
Y294750D02*X63450Y295500D01*
X64950D01*
X65700Y294750D01*
Y290250D01*
X64950Y289500D02*X65700Y290250D01*
X63450Y289500D02*X64950D01*
X62700Y291000D02*X65700Y294000D01*
X3000Y310500D02*X3750Y309750D01*
X750Y310500D02*X3000D01*
X0Y309750D02*X750Y310500D01*
X0Y309750D02*Y308250D01*
X750Y307500D01*
X3000D01*
X3750Y306750D01*
Y305250D01*
X3000Y304500D02*X3750Y305250D01*
X750Y304500D02*X3000D01*
X0Y305250D02*X750Y304500D01*
X5550Y307500D02*Y305250D01*
X6300Y304500D01*
X8550Y307500D02*Y303000D01*
X7800Y302250D02*X8550Y303000D01*
X6300Y302250D02*X7800D01*
X5550Y303000D02*X6300Y302250D01*
Y304500D02*X7800D01*
X8550Y305250D01*
X11100Y306750D02*Y304500D01*
Y306750D02*X11850Y307500D01*
X12600D01*
X13350Y306750D01*
Y304500D01*
Y306750D02*X14100Y307500D01*
X14850D01*
X15600Y306750D01*
Y304500D01*
X10350Y307500D02*X11100Y306750D01*
X17400Y310500D02*Y304500D01*
Y305250D02*X18150Y304500D01*
X19650D01*
X20400Y305250D01*
Y306750D02*Y305250D01*
X19650Y307500D02*X20400Y306750D01*
X18150Y307500D02*X19650D01*
X17400Y306750D02*X18150Y307500D01*
X22200Y306750D02*Y305250D01*
Y306750D02*X22950Y307500D01*
X24450D01*
X25200Y306750D01*
Y305250D01*
X24450Y304500D02*X25200Y305250D01*
X22950Y304500D02*X24450D01*
X22200Y305250D02*X22950Y304500D01*
X27000Y310500D02*Y305250D01*
X27750Y304500D01*
X0Y301250D02*X29250D01*
X41750Y310500D02*Y304500D01*
X43700Y310500D02*X44750Y309450D01*
Y305550D01*
X43700Y304500D02*X44750Y305550D01*
X41000Y304500D02*X43700D01*
X41000Y310500D02*X43700D01*
G54D106*X46550Y309000D02*Y308850D01*
G54D105*Y306750D02*Y304500D01*
X50300Y307500D02*X51050Y306750D01*
X48800Y307500D02*X50300D01*
X48050Y306750D02*X48800Y307500D01*
X48050Y306750D02*Y305250D01*
X48800Y304500D01*
X51050Y307500D02*Y305250D01*
X51800Y304500D01*
X48800D02*X50300D01*
X51050Y305250D01*
X54350Y306750D02*Y304500D01*
Y306750D02*X55100Y307500D01*
X55850D01*
X56600Y306750D01*
Y304500D01*
Y306750D02*X57350Y307500D01*
X58100D01*
X58850Y306750D01*
Y304500D01*
X53600Y307500D02*X54350Y306750D01*
X60650Y304500D02*X61400D01*
X65900Y305250D02*X66650Y304500D01*
X65900Y309750D02*X66650Y310500D01*
X65900Y309750D02*Y305250D01*
X68450Y310500D02*X69950D01*
X69200D02*Y304500D01*
X68450D02*X69950D01*
X72500Y306750D02*Y304500D01*
Y306750D02*X73250Y307500D01*
X74000D01*
X74750Y306750D01*
Y304500D01*
X71750Y307500D02*X72500Y306750D01*
X77300Y307500D02*X79550D01*
X76550Y306750D02*X77300Y307500D01*
X76550Y306750D02*Y305250D01*
X77300Y304500D01*
X79550D01*
X81350Y310500D02*Y304500D01*
Y306750D02*X82100Y307500D01*
X83600D01*
X84350Y306750D01*
Y304500D01*
X86150Y310500D02*X86900Y309750D01*
Y305250D01*
X86150Y304500D02*X86900Y305250D01*
X41000Y301250D02*X88700D01*
X96050Y304500D02*X98000D01*
X95000Y305550D02*X96050Y304500D01*
X95000Y309450D02*Y305550D01*
Y309450D02*X96050Y310500D01*
X98000D01*
X99800Y306750D02*Y305250D01*
Y306750D02*X100550Y307500D01*
X102050D01*
X102800Y306750D01*
Y305250D01*
X102050Y304500D02*X102800Y305250D01*
X100550Y304500D02*X102050D01*
X99800Y305250D02*X100550Y304500D01*
X104600Y307500D02*Y305250D01*
X105350Y304500D01*
X106850D01*
X107600Y305250D01*
Y307500D02*Y305250D01*
X110150Y306750D02*Y304500D01*
Y306750D02*X110900Y307500D01*
X111650D01*
X112400Y306750D01*
Y304500D01*
X109400Y307500D02*X110150Y306750D01*
X114950Y310500D02*Y305250D01*
X115700Y304500D01*
X114200Y308250D02*X115700D01*
X95000Y301250D02*X117200D01*
X130750Y310500D02*Y304500D01*
X130000Y310500D02*X133000D01*
X133750Y309750D01*
Y308250D01*
X133000Y307500D02*X133750Y308250D01*
X130750Y307500D02*X133000D01*
X135550Y310500D02*Y305250D01*
X136300Y304500D01*
X140050Y307500D02*X140800Y306750D01*
X138550Y307500D02*X140050D01*
X137800Y306750D02*X138550Y307500D01*
X137800Y306750D02*Y305250D01*
X138550Y304500D01*
X140800Y307500D02*Y305250D01*
X141550Y304500D01*
X138550D02*X140050D01*
X140800Y305250D01*
X144100Y310500D02*Y305250D01*
X144850Y304500D01*
X143350Y308250D02*X144850D01*
X147100Y304500D02*X149350D01*
X146350Y305250D02*X147100Y304500D01*
X146350Y306750D02*Y305250D01*
Y306750D02*X147100Y307500D01*
X148600D01*
X149350Y306750D01*
X146350Y306000D02*X149350D01*
Y306750D02*Y306000D01*
X154150Y310500D02*Y304500D01*
X153400D02*X154150Y305250D01*
X151900Y304500D02*X153400D01*
X151150Y305250D02*X151900Y304500D01*
X151150Y306750D02*Y305250D01*
Y306750D02*X151900Y307500D01*
X153400D01*
X154150Y306750D01*
X157450Y307500D02*Y306750D01*
Y305250D02*Y304500D01*
X155950Y309750D02*Y309000D01*
Y309750D02*X156700Y310500D01*
X158200D01*
X158950Y309750D01*
Y309000D01*
X157450Y307500D02*X158950Y309000D01*
X130000Y301250D02*X160750D01*
X0Y325500D02*X3000D01*
X1500D02*Y319500D01*
X4800Y325500D02*Y319500D01*
Y321750D02*X5550Y322500D01*
X7050D01*
X7800Y321750D01*
Y319500D01*
X10350D02*X12600D01*
X9600Y320250D02*X10350Y319500D01*
X9600Y321750D02*Y320250D01*
Y321750D02*X10350Y322500D01*
X11850D01*
X12600Y321750D01*
X9600Y321000D02*X12600D01*
Y321750D02*Y321000D01*
X15150Y321750D02*Y319500D01*
Y321750D02*X15900Y322500D01*
X17400D01*
X14400D02*X15150Y321750D01*
X19950Y319500D02*X22200D01*
X19200Y320250D02*X19950Y319500D01*
X19200Y321750D02*Y320250D01*
Y321750D02*X19950Y322500D01*
X21450D01*
X22200Y321750D01*
X19200Y321000D02*X22200D01*
Y321750D02*Y321000D01*
X28950Y322500D02*X29700Y321750D01*
X27450Y322500D02*X28950D01*
X26700Y321750D02*X27450Y322500D01*
X26700Y321750D02*Y320250D01*
X27450Y319500D01*
X29700Y322500D02*Y320250D01*
X30450Y319500D01*
X27450D02*X28950D01*
X29700Y320250D01*
X33000Y321750D02*Y319500D01*
Y321750D02*X33750Y322500D01*
X35250D01*
X32250D02*X33000Y321750D01*
X37800Y319500D02*X40050D01*
X37050Y320250D02*X37800Y319500D01*
X37050Y321750D02*Y320250D01*
Y321750D02*X37800Y322500D01*
X39300D01*
X40050Y321750D01*
X37050Y321000D02*X40050D01*
Y321750D02*Y321000D01*
X44550Y324300D02*X45750Y325500D01*
Y319500D01*
X44550D02*X46800D01*
X48600Y320250D02*X49350Y319500D01*
X48600Y324750D02*Y320250D01*
Y324750D02*X49350Y325500D01*
X50850D01*
X51600Y324750D01*
Y320250D01*
X50850Y319500D02*X51600Y320250D01*
X49350Y319500D02*X50850D01*
X48600Y321000D02*X51600Y324000D01*
X59100Y325500D02*Y319500D01*
X58350D02*X59100Y320250D01*
X56850Y319500D02*X58350D01*
X56100Y320250D02*X56850Y319500D01*
X56100Y321750D02*Y320250D01*
Y321750D02*X56850Y322500D01*
X58350D01*
X59100Y321750D01*
G54D106*X60900Y324000D02*Y323850D01*
G54D105*Y321750D02*Y319500D01*
X63150Y324750D02*Y319500D01*
Y324750D02*X63900Y325500D01*
X64650D01*
X62400Y322500D02*X63900D01*
X66900Y324750D02*Y319500D01*
Y324750D02*X67650Y325500D01*
X68400D01*
X66150Y322500D02*X67650D01*
X70650Y319500D02*X72900D01*
X69900Y320250D02*X70650Y319500D01*
X69900Y321750D02*Y320250D01*
Y321750D02*X70650Y322500D01*
X72150D01*
X72900Y321750D01*
X69900Y321000D02*X72900D01*
Y321750D02*Y321000D01*
X75450Y321750D02*Y319500D01*
Y321750D02*X76200Y322500D01*
X77700D01*
X74700D02*X75450Y321750D01*
X80250Y319500D02*X82500D01*
X79500Y320250D02*X80250Y319500D01*
X79500Y321750D02*Y320250D01*
Y321750D02*X80250Y322500D01*
X81750D01*
X82500Y321750D01*
X79500Y321000D02*X82500D01*
Y321750D02*Y321000D01*
X85050Y321750D02*Y319500D01*
Y321750D02*X85800Y322500D01*
X86550D01*
X87300Y321750D01*
Y319500D01*
X84300Y322500D02*X85050Y321750D01*
X89850Y325500D02*Y320250D01*
X90600Y319500D01*
X89100Y323250D02*X90600D01*
X97800Y325500D02*Y319500D01*
X97050D02*X97800Y320250D01*
X95550Y319500D02*X97050D01*
X94800Y320250D02*X95550Y319500D01*
X94800Y321750D02*Y320250D01*
Y321750D02*X95550Y322500D01*
X97050D01*
X97800Y321750D01*
X100350D02*Y319500D01*
Y321750D02*X101100Y322500D01*
X102600D01*
X99600D02*X100350Y321750D01*
G54D106*X104400Y324000D02*Y323850D01*
G54D105*Y321750D02*Y319500D01*
X105900Y325500D02*Y320250D01*
X106650Y319500D01*
X108150Y325500D02*Y320250D01*
X108900Y319500D01*
X113850D02*X116100D01*
X116850Y320250D01*
X116100Y321000D02*X116850Y320250D01*
X113850Y321000D02*X116100D01*
X113100Y321750D02*X113850Y321000D01*
X113100Y321750D02*X113850Y322500D01*
X116100D01*
X116850Y321750D01*
X113100Y320250D02*X113850Y319500D01*
G54D106*X118650Y324000D02*Y323850D01*
G54D105*Y321750D02*Y319500D01*
X120150Y322500D02*X123150D01*
X120150Y319500D02*X123150Y322500D01*
X120150Y319500D02*X123150D01*
X125700D02*X127950D01*
X124950Y320250D02*X125700Y319500D01*
X124950Y321750D02*Y320250D01*
Y321750D02*X125700Y322500D01*
X127200D01*
X127950Y321750D01*
X124950Y321000D02*X127950D01*
Y321750D02*Y321000D01*
X130500Y319500D02*X132750D01*
X133500Y320250D01*
X132750Y321000D02*X133500Y320250D01*
X130500Y321000D02*X132750D01*
X129750Y321750D02*X130500Y321000D01*
X129750Y321750D02*X130500Y322500D01*
X132750D01*
X133500Y321750D01*
X129750Y320250D02*X130500Y319500D01*
X138000Y322500D02*Y320250D01*
X138750Y319500D01*
X140250D01*
X141000Y320250D01*
Y322500D02*Y320250D01*
X143550Y319500D02*X145800D01*
X146550Y320250D01*
X145800Y321000D02*X146550Y320250D01*
X143550Y321000D02*X145800D01*
X142800Y321750D02*X143550Y321000D01*
X142800Y321750D02*X143550Y322500D01*
X145800D01*
X146550Y321750D01*
X142800Y320250D02*X143550Y319500D01*
X149100D02*X151350D01*
X148350Y320250D02*X149100Y319500D01*
X148350Y321750D02*Y320250D01*
Y321750D02*X149100Y322500D01*
X150600D01*
X151350Y321750D01*
X148350Y321000D02*X151350D01*
Y321750D02*Y321000D01*
X156150Y325500D02*Y319500D01*
X155400D02*X156150Y320250D01*
X153900Y319500D02*X155400D01*
X153150Y320250D02*X153900Y319500D01*
X153150Y321750D02*Y320250D01*
Y321750D02*X153900Y322500D01*
X155400D01*
X156150Y321750D01*
G54D106*X160650Y324000D02*Y323850D01*
G54D105*Y321750D02*Y319500D01*
X162900Y321750D02*Y319500D01*
Y321750D02*X163650Y322500D01*
X164400D01*
X165150Y321750D01*
Y319500D01*
X162150Y322500D02*X162900Y321750D01*
X170400Y325500D02*Y320250D01*
X171150Y319500D01*
X169650Y323250D02*X171150D01*
X172650Y325500D02*Y319500D01*
Y321750D02*X173400Y322500D01*
X174900D01*
X175650Y321750D01*
Y319500D01*
G54D106*X177450Y324000D02*Y323850D01*
G54D105*Y321750D02*Y319500D01*
X179700D02*X181950D01*
X182700Y320250D01*
X181950Y321000D02*X182700Y320250D01*
X179700Y321000D02*X181950D01*
X178950Y321750D02*X179700Y321000D01*
X178950Y321750D02*X179700Y322500D01*
X181950D01*
X182700Y321750D01*
X178950Y320250D02*X179700Y319500D01*
X187200Y325500D02*Y320250D01*
X187950Y319500D01*
X191700Y322500D02*X192450Y321750D01*
X190200Y322500D02*X191700D01*
X189450Y321750D02*X190200Y322500D01*
X189450Y321750D02*Y320250D01*
X190200Y319500D01*
X192450Y322500D02*Y320250D01*
X193200Y319500D01*
X190200D02*X191700D01*
X192450Y320250D01*
X195000Y322500D02*Y320250D01*
X195750Y319500D01*
X198000Y322500D02*Y318000D01*
X197250Y317250D02*X198000Y318000D01*
X195750Y317250D02*X197250D01*
X195000Y318000D02*X195750Y317250D01*
Y319500D02*X197250D01*
X198000Y320250D01*
X199800Y321750D02*Y320250D01*
Y321750D02*X200550Y322500D01*
X202050D01*
X202800Y321750D01*
Y320250D01*
X202050Y319500D02*X202800Y320250D01*
X200550Y319500D02*X202050D01*
X199800Y320250D02*X200550Y319500D01*
X204600Y322500D02*Y320250D01*
X205350Y319500D01*
X206850D01*
X207600Y320250D01*
Y322500D02*Y320250D01*
X210150Y325500D02*Y320250D01*
X210900Y319500D01*
X209400Y323250D02*X210900D01*
X212400Y318000D02*X213900Y319500D01*
X218400Y324300D02*X219600Y325500D01*
Y319500D01*
X218400D02*X220650D01*
X222450Y324750D02*X223200Y325500D01*
X224700D01*
X225450Y324750D01*
X224700Y319500D02*X225450Y320250D01*
X223200Y319500D02*X224700D01*
X222450Y320250D02*X223200Y319500D01*
Y322800D02*X224700D01*
X225450Y324750D02*Y323550D01*
Y322050D02*Y320250D01*
Y322050D02*X224700Y322800D01*
X225450Y323550D02*X224700Y322800D01*
X228000Y319500D02*X231000Y325500D01*
X227250D02*X231000D01*
X235500D02*Y319500D01*
Y321750D02*X236250Y322500D01*
X237750D01*
X238500Y321750D01*
Y319500D01*
X240300Y321750D02*Y320250D01*
Y321750D02*X241050Y322500D01*
X242550D01*
X243300Y321750D01*
Y320250D01*
X242550Y319500D02*X243300Y320250D01*
X241050Y319500D02*X242550D01*
X240300Y320250D02*X241050Y319500D01*
X245100Y325500D02*Y320250D01*
X245850Y319500D01*
X248100D02*X250350D01*
X247350Y320250D02*X248100Y319500D01*
X247350Y321750D02*Y320250D01*
Y321750D02*X248100Y322500D01*
X249600D01*
X250350Y321750D01*
X247350Y321000D02*X250350D01*
Y321750D02*Y321000D01*
X252900Y319500D02*X255150D01*
X255900Y320250D01*
X255150Y321000D02*X255900Y320250D01*
X252900Y321000D02*X255150D01*
X252150Y321750D02*X252900Y321000D01*
X252150Y321750D02*X252900Y322500D01*
X255150D01*
X255900Y321750D01*
X252150Y320250D02*X252900Y319500D01*
X261150Y325500D02*Y320250D01*
X261900Y319500D01*
X260400Y323250D02*X261900D01*
X263400Y321750D02*Y320250D01*
Y321750D02*X264150Y322500D01*
X265650D01*
X266400Y321750D01*
Y320250D01*
X265650Y319500D02*X266400Y320250D01*
X264150Y319500D02*X265650D01*
X263400Y320250D02*X264150Y319500D01*
X268950Y325500D02*Y320250D01*
X269700Y319500D01*
X268200Y323250D02*X269700D01*
X273450Y322500D02*X274200Y321750D01*
X271950Y322500D02*X273450D01*
X271200Y321750D02*X271950Y322500D01*
X271200Y321750D02*Y320250D01*
X271950Y319500D01*
X274200Y322500D02*Y320250D01*
X274950Y319500D01*
X271950D02*X273450D01*
X274200Y320250D01*
X276750Y325500D02*Y320250D01*
X277500Y319500D01*
G54D107*X0Y147000D02*X634000D01*
Y0D01*
X0D01*
Y147000D01*
G54D105*X230675Y-9500D02*X233675D01*
X234425Y-8750D01*
Y-6950D02*Y-8750D01*
X233675Y-6200D02*X234425Y-6950D01*
X231425Y-6200D02*X233675D01*
X231425Y-3500D02*Y-9500D01*
X230675Y-3500D02*X233675D01*
X234425Y-4250D01*
Y-5450D01*
X233675Y-6200D02*X234425Y-5450D01*
X236225Y-7250D02*Y-8750D01*
Y-7250D02*X236975Y-6500D01*
X238475D01*
X239225Y-7250D01*
Y-8750D01*
X238475Y-9500D02*X239225Y-8750D01*
X236975Y-9500D02*X238475D01*
X236225Y-8750D02*X236975Y-9500D01*
X243275Y-6500D02*X244025Y-7250D01*
X241775Y-6500D02*X243275D01*
X241025Y-7250D02*X241775Y-6500D01*
X241025Y-7250D02*Y-8750D01*
X241775Y-9500D01*
X244025Y-6500D02*Y-8750D01*
X244775Y-9500D01*
X241775D02*X243275D01*
X244025Y-8750D01*
X247325Y-7250D02*Y-9500D01*
Y-7250D02*X248075Y-6500D01*
X249575D01*
X246575D02*X247325Y-7250D01*
X254375Y-3500D02*Y-9500D01*
X253625D02*X254375Y-8750D01*
X252125Y-9500D02*X253625D01*
X251375Y-8750D02*X252125Y-9500D01*
X251375Y-7250D02*Y-8750D01*
Y-7250D02*X252125Y-6500D01*
X253625D01*
X254375Y-7250D01*
X258875D02*Y-8750D01*
Y-7250D02*X259625Y-6500D01*
X261125D01*
X261875Y-7250D01*
Y-8750D01*
X261125Y-9500D02*X261875Y-8750D01*
X259625Y-9500D02*X261125D01*
X258875Y-8750D02*X259625Y-9500D01*
X263675Y-6500D02*Y-8750D01*
X264425Y-9500D01*
X265925D01*
X266675Y-8750D01*
Y-6500D02*Y-8750D01*
X269225Y-3500D02*Y-8750D01*
X269975Y-9500D01*
X268475Y-5750D02*X269975D01*
X271475Y-3500D02*Y-8750D01*
X272225Y-9500D01*
G54D106*X273725Y-5000D02*Y-5150D01*
G54D105*Y-7250D02*Y-9500D01*
X275975Y-7250D02*Y-9500D01*
Y-7250D02*X276725Y-6500D01*
X277475D01*
X278225Y-7250D01*
Y-9500D01*
X275225Y-6500D02*X275975Y-7250D01*
X280775Y-9500D02*X283025D01*
X280025Y-8750D02*X280775Y-9500D01*
X280025Y-7250D02*Y-8750D01*
Y-7250D02*X280775Y-6500D01*
X282275D01*
X283025Y-7250D01*
X280025Y-8000D02*X283025D01*
Y-7250D02*Y-8000D01*
G54D106*X287525Y-5000D02*Y-5150D01*
G54D105*Y-7250D02*Y-9500D01*
X289775D02*X292025D01*
X292775Y-8750D01*
X292025Y-8000D02*X292775Y-8750D01*
X289775Y-8000D02*X292025D01*
X289025Y-7250D02*X289775Y-8000D01*
X289025Y-7250D02*X289775Y-6500D01*
X292025D01*
X292775Y-7250D01*
X289025Y-8750D02*X289775Y-9500D01*
X298025Y-3500D02*Y-8750D01*
X298775Y-9500D01*
X297275Y-5750D02*X298775D01*
X300275Y-3500D02*Y-9500D01*
Y-7250D02*X301025Y-6500D01*
X302525D01*
X303275Y-7250D01*
Y-9500D01*
X305825D02*X308075D01*
X305075Y-8750D02*X305825Y-9500D01*
X305075Y-7250D02*Y-8750D01*
Y-7250D02*X305825Y-6500D01*
X307325D01*
X308075Y-7250D01*
X305075Y-8000D02*X308075D01*
Y-7250D02*Y-8000D01*
X313325Y-6500D02*X315575D01*
X312575Y-7250D02*X313325Y-6500D01*
X312575Y-7250D02*Y-8750D01*
X313325Y-9500D01*
X315575D01*
X318125D02*X320375D01*
X317375Y-8750D02*X318125Y-9500D01*
X317375Y-7250D02*Y-8750D01*
Y-7250D02*X318125Y-6500D01*
X319625D01*
X320375Y-7250D01*
X317375Y-8000D02*X320375D01*
Y-7250D02*Y-8000D01*
X322925Y-7250D02*Y-9500D01*
Y-7250D02*X323675Y-6500D01*
X324425D01*
X325175Y-7250D01*
Y-9500D01*
X322175Y-6500D02*X322925Y-7250D01*
X327725Y-3500D02*Y-8750D01*
X328475Y-9500D01*
X326975Y-5750D02*X328475D01*
X330725Y-9500D02*X332975D01*
X329975Y-8750D02*X330725Y-9500D01*
X329975Y-7250D02*Y-8750D01*
Y-7250D02*X330725Y-6500D01*
X332225D01*
X332975Y-7250D01*
X329975Y-8000D02*X332975D01*
Y-7250D02*Y-8000D01*
X335525Y-7250D02*Y-9500D01*
Y-7250D02*X336275Y-6500D01*
X337775D01*
X334775D02*X335525Y-7250D01*
X339575Y-3500D02*Y-8750D01*
X340325Y-9500D01*
G54D106*X341825Y-5000D02*Y-5150D01*
G54D105*Y-7250D02*Y-9500D01*
X344075Y-7250D02*Y-9500D01*
Y-7250D02*X344825Y-6500D01*
X345575D01*
X346325Y-7250D01*
Y-9500D01*
X343325Y-6500D02*X344075Y-7250D01*
X348875Y-9500D02*X351125D01*
X348125Y-8750D02*X348875Y-9500D01*
X348125Y-7250D02*Y-8750D01*
Y-7250D02*X348875Y-6500D01*
X350375D01*
X351125Y-7250D01*
X348125Y-8000D02*X351125D01*
Y-7250D02*Y-8000D01*
X355625Y-7250D02*Y-8750D01*
Y-7250D02*X356375Y-6500D01*
X357875D01*
X358625Y-7250D01*
Y-8750D01*
X357875Y-9500D02*X358625Y-8750D01*
X356375Y-9500D02*X357875D01*
X355625Y-8750D02*X356375Y-9500D01*
X361175Y-4250D02*Y-9500D01*
Y-4250D02*X361925Y-3500D01*
X362675D01*
X360425Y-6500D02*X361925D01*
X367625Y-3500D02*Y-8750D01*
X368375Y-9500D01*
X366875Y-5750D02*X368375D01*
X369875Y-3500D02*Y-9500D01*
Y-7250D02*X370625Y-6500D01*
X372125D01*
X372875Y-7250D01*
Y-9500D01*
G54D106*X374675Y-5000D02*Y-5150D01*
G54D105*Y-7250D02*Y-9500D01*
X376925D02*X379175D01*
X379925Y-8750D01*
X379175Y-8000D02*X379925Y-8750D01*
X376925Y-8000D02*X379175D01*
X376175Y-7250D02*X376925Y-8000D01*
X376175Y-7250D02*X376925Y-6500D01*
X379175D01*
X379925Y-7250D01*
X376175Y-8750D02*X376925Y-9500D01*
X385175Y-7250D02*Y-11750D01*
X384425Y-6500D02*X385175Y-7250D01*
X385925Y-6500D01*
X387425D01*
X388175Y-7250D01*
Y-8750D01*
X387425Y-9500D02*X388175Y-8750D01*
X385925Y-9500D02*X387425D01*
X385175Y-8750D02*X385925Y-9500D01*
X392225Y-6500D02*X392975Y-7250D01*
X390725Y-6500D02*X392225D01*
X389975Y-7250D02*X390725Y-6500D01*
X389975Y-7250D02*Y-8750D01*
X390725Y-9500D01*
X392975Y-6500D02*Y-8750D01*
X393725Y-9500D01*
X390725D02*X392225D01*
X392975Y-8750D01*
X396275Y-3500D02*Y-8750D01*
X397025Y-9500D01*
X395525Y-5750D02*X397025D01*
X398525Y-3500D02*Y-9500D01*
Y-7250D02*X399275Y-6500D01*
X400775D01*
X401525Y-7250D01*
Y-9500D01*
X200750Y175500D02*Y169500D01*
X202700Y175500D02*X203750Y174450D01*
Y170550D01*
X202700Y169500D02*X203750Y170550D01*
X200000Y169500D02*X202700D01*
X200000Y175500D02*X202700D01*
X207800Y172500D02*X208550Y171750D01*
X206300Y172500D02*X207800D01*
X205550Y171750D02*X206300Y172500D01*
X205550Y171750D02*Y170250D01*
X206300Y169500D01*
X208550Y172500D02*Y170250D01*
X209300Y169500D01*
X206300D02*X207800D01*
X208550Y170250D01*
X211850Y175500D02*Y170250D01*
X212600Y169500D01*
X211100Y173250D02*X212600D01*
X214850Y169500D02*X217100D01*
X214100Y170250D02*X214850Y169500D01*
X214100Y171750D02*Y170250D01*
Y171750D02*X214850Y172500D01*
X216350D01*
X217100Y171750D01*
X214100Y171000D02*X217100D01*
Y171750D02*Y171000D01*
X218900Y173250D02*X219650D01*
X218900Y171750D02*X219650D01*
X224150Y175500D02*X227150D01*
X225650D02*Y169500D01*
X228950Y175500D02*Y169500D01*
Y171750D02*X229700Y172500D01*
X231200D01*
X231950Y171750D01*
Y169500D01*
X233750Y172500D02*Y170250D01*
X234500Y169500D01*
X236000D01*
X236750Y170250D01*
Y172500D02*Y170250D01*
X241250Y174750D02*X242000Y175500D01*
X244250D01*
X245000Y174750D01*
Y173250D01*
X241250Y169500D02*X245000Y173250D01*
X241250Y169500D02*X245000D01*
X247550D02*X249800Y172500D01*
Y174750D02*Y172500D01*
X249050Y175500D02*X249800Y174750D01*
X247550Y175500D02*X249050D01*
X246800Y174750D02*X247550Y175500D01*
X246800Y174750D02*Y173250D01*
X247550Y172500D01*
X249800D01*
X254300Y175500D02*Y169500D01*
Y175500D02*X258050Y169500D01*
Y175500D02*Y169500D01*
X259850Y171750D02*Y170250D01*
Y171750D02*X260600Y172500D01*
X262100D01*
X262850Y171750D01*
Y170250D01*
X262100Y169500D02*X262850Y170250D01*
X260600Y169500D02*X262100D01*
X259850Y170250D02*X260600Y169500D01*
X264650Y172500D02*X266150Y169500D01*
X267650Y172500D02*X266150Y169500D01*
X272150Y174750D02*X272900Y175500D01*
X275150D01*
X275900Y174750D01*
Y173250D01*
X272150Y169500D02*X275900Y173250D01*
X272150Y169500D02*X275900D01*
X277700Y170250D02*X278450Y169500D01*
X277700Y174750D02*Y170250D01*
Y174750D02*X278450Y175500D01*
X279950D01*
X280700Y174750D01*
Y170250D01*
X279950Y169500D02*X280700Y170250D01*
X278450Y169500D02*X279950D01*
X277700Y171000D02*X280700Y174000D01*
X282500Y174300D02*X283700Y175500D01*
Y169500D01*
X282500D02*X284750D01*
X286550Y170250D02*X287300Y169500D01*
X286550Y171450D02*Y170250D01*
Y171450D02*X287600Y172500D01*
X288500D01*
X289550Y171450D01*
Y170250D01*
X288800Y169500D02*X289550Y170250D01*
X287300Y169500D02*X288800D01*
X286550Y173550D02*X287600Y172500D01*
X286550Y174750D02*Y173550D01*
Y174750D02*X287300Y175500D01*
X288800D01*
X289550Y174750D01*
Y173550D01*
X288500Y172500D02*X289550Y173550D01*
X294050Y170250D02*X294800Y169500D01*
X294050Y174750D02*Y170250D01*
Y174750D02*X294800Y175500D01*
X296300D01*
X297050Y174750D01*
Y170250D01*
X296300Y169500D02*X297050Y170250D01*
X294800Y169500D02*X296300D01*
X294050Y171000D02*X297050Y174000D01*
X299600Y169500D02*X301850Y172500D01*
Y174750D02*Y172500D01*
X301100Y175500D02*X301850Y174750D01*
X299600Y175500D02*X301100D01*
X298850Y174750D02*X299600Y175500D01*
X298850Y174750D02*Y173250D01*
X299600Y172500D01*
X301850D01*
X303650Y173250D02*X304400D01*
X303650Y171750D02*X304400D01*
X306200Y175500D02*X309200D01*
X306200D02*Y172500D01*
X306950Y173250D01*
X308450D01*
X309200Y172500D01*
Y170250D01*
X308450Y169500D02*X309200Y170250D01*
X306950Y169500D02*X308450D01*
X306200Y170250D02*X306950Y169500D01*
X311000Y174750D02*X311750Y175500D01*
X313250D01*
X314000Y174750D01*
X313250Y169500D02*X314000Y170250D01*
X311750Y169500D02*X313250D01*
X311000Y170250D02*X311750Y169500D01*
Y172800D02*X313250D01*
X314000Y174750D02*Y173550D01*
Y172050D02*Y170250D01*
Y172050D02*X313250Y172800D01*
X314000Y173550D02*X313250Y172800D01*
X315800Y173250D02*X316550D01*
X315800Y171750D02*X316550D01*
X318350Y175500D02*X321350D01*
X318350D02*Y172500D01*
X319100Y173250D01*
X320600D01*
X321350Y172500D01*
Y170250D01*
X320600Y169500D02*X321350Y170250D01*
X319100Y169500D02*X320600D01*
X318350Y170250D02*X319100Y169500D01*
X323150Y174750D02*X323900Y175500D01*
X325400D01*
X326150Y174750D01*
X325400Y169500D02*X326150Y170250D01*
X323900Y169500D02*X325400D01*
X323150Y170250D02*X323900Y169500D01*
Y172800D02*X325400D01*
X326150Y174750D02*Y173550D01*
Y172050D02*Y170250D01*
Y172050D02*X325400Y172800D01*
X326150Y173550D02*X325400Y172800D01*
X331400Y175500D02*Y169500D01*
X330650Y175500D02*X333650D01*
X334400Y174750D01*
Y173250D01*
X333650Y172500D02*X334400Y173250D01*
X331400Y172500D02*X333650D01*
X336200Y175500D02*Y169500D01*
Y175500D02*X338450Y172500D01*
X340700Y175500D01*
Y169500D01*
X348200Y175500D02*X348950Y174750D01*
X345950Y175500D02*X348200D01*
X345200Y174750D02*X345950Y175500D01*
X345200Y174750D02*Y170250D01*
X345950Y169500D01*
X348200D01*
X348950Y170250D01*
Y171750D02*Y170250D01*
X348200Y172500D02*X348950Y171750D01*
X346700Y172500D02*X348200D01*
X350750Y175500D02*Y169500D01*
Y175500D02*X353000Y172500D01*
X355250Y175500D01*
Y169500D01*
X357050Y175500D02*X360050D01*
X358550D02*Y169500D01*
X364550Y175500D02*Y170250D01*
X365300Y169500D01*
X366800D01*
X367550Y170250D01*
Y175500D02*Y170250D01*
X369350Y175500D02*X372350D01*
X370850D02*Y169500D01*
X375200D02*X377150D01*
X374150Y170550D02*X375200Y169500D01*
X374150Y174450D02*Y170550D01*
Y174450D02*X375200Y175500D01*
X377150D01*
X200000Y189000D02*Y184500D01*
Y189000D02*X201050Y190500D01*
X202700D01*
X203750Y189000D01*
Y184500D01*
X200000Y187500D02*X203750D01*
X205550D02*Y185250D01*
X206300Y184500D01*
X207800D01*
X208550Y185250D01*
Y187500D02*Y185250D01*
X211100Y190500D02*Y185250D01*
X211850Y184500D01*
X210350Y188250D02*X211850D01*
X213350Y190500D02*Y184500D01*
Y186750D02*X214100Y187500D01*
X215600D01*
X216350Y186750D01*
Y184500D01*
X218150Y186750D02*Y185250D01*
Y186750D02*X218900Y187500D01*
X220400D01*
X221150Y186750D01*
Y185250D01*
X220400Y184500D02*X221150Y185250D01*
X218900Y184500D02*X220400D01*
X218150Y185250D02*X218900Y184500D01*
X223700Y186750D02*Y184500D01*
Y186750D02*X224450Y187500D01*
X225950D01*
X222950D02*X223700Y186750D01*
X227750Y188250D02*X228500D01*
X227750Y186750D02*X228500D01*
X233000Y190500D02*Y184500D01*
Y190500D02*X235250Y187500D01*
X237500Y190500D01*
Y184500D01*
G54D106*X239300Y189000D02*Y188850D01*
G54D105*Y186750D02*Y184500D01*
X241550Y187500D02*X243800D01*
X240800Y186750D02*X241550Y187500D01*
X240800Y186750D02*Y185250D01*
X241550Y184500D01*
X243800D01*
X245600Y190500D02*Y184500D01*
Y186750D02*X246350Y187500D01*
X247850D01*
X248600Y186750D01*
Y184500D01*
X252650Y187500D02*X253400Y186750D01*
X251150Y187500D02*X252650D01*
X250400Y186750D02*X251150Y187500D01*
X250400Y186750D02*Y185250D01*
X251150Y184500D01*
X253400Y187500D02*Y185250D01*
X254150Y184500D01*
X251150D02*X252650D01*
X253400Y185250D01*
X256700Y184500D02*X258950D01*
X255950Y185250D02*X256700Y184500D01*
X255950Y186750D02*Y185250D01*
Y186750D02*X256700Y187500D01*
X258200D01*
X258950Y186750D01*
X255950Y186000D02*X258950D01*
Y186750D02*Y186000D01*
X260750Y190500D02*Y185250D01*
X261500Y184500D01*
X266450Y190500D02*Y184500D01*
X265700Y190500D02*X268700D01*
X269450Y189750D01*
Y188250D01*
X268700Y187500D02*X269450Y188250D01*
X266450Y187500D02*X268700D01*
X272000Y184500D02*X274250D01*
X271250Y185250D02*X272000Y184500D01*
X271250Y186750D02*Y185250D01*
Y186750D02*X272000Y187500D01*
X273500D01*
X274250Y186750D01*
X271250Y186000D02*X274250D01*
Y186750D02*Y186000D01*
X276800Y190500D02*Y185250D01*
X277550Y184500D01*
X276050Y188250D02*X277550D01*
X279800Y184500D02*X282050D01*
X279050Y185250D02*X279800Y184500D01*
X279050Y186750D02*Y185250D01*
Y186750D02*X279800Y187500D01*
X281300D01*
X282050Y186750D01*
X279050Y186000D02*X282050D01*
Y186750D02*Y186000D01*
X284600Y186750D02*Y184500D01*
Y186750D02*X285350Y187500D01*
X286850D01*
X283850D02*X284600Y186750D01*
X289400Y184500D02*X291650D01*
X292400Y185250D01*
X291650Y186000D02*X292400Y185250D01*
X289400Y186000D02*X291650D01*
X288650Y186750D02*X289400Y186000D01*
X288650Y186750D02*X289400Y187500D01*
X291650D01*
X292400Y186750D01*
X288650Y185250D02*X289400Y184500D01*
X294950D02*X297200D01*
X294200Y185250D02*X294950Y184500D01*
X294200Y186750D02*Y185250D01*
Y186750D02*X294950Y187500D01*
X296450D01*
X297200Y186750D01*
X294200Y186000D02*X297200D01*
Y186750D02*Y186000D01*
X299750Y186750D02*Y184500D01*
Y186750D02*X300500Y187500D01*
X301250D01*
X302000Y186750D01*
Y184500D01*
X299000Y187500D02*X299750Y186750D01*
X200000Y205500D02*X203000D01*
X201500D02*Y199500D01*
G54D106*X204800Y204000D02*Y203850D01*
G54D105*Y201750D02*Y199500D01*
X207050Y205500D02*Y200250D01*
X207800Y199500D01*
X206300Y203250D02*X207800D01*
X209300Y205500D02*Y200250D01*
X210050Y199500D01*
X212300D02*X214550D01*
X211550Y200250D02*X212300Y199500D01*
X211550Y201750D02*Y200250D01*
Y201750D02*X212300Y202500D01*
X213800D01*
X214550Y201750D01*
X211550Y201000D02*X214550D01*
Y201750D02*Y201000D01*
X216350Y203250D02*X217100D01*
X216350Y201750D02*X217100D01*
X221600Y200250D02*X222350Y199500D01*
X221600Y204750D02*X222350Y205500D01*
X221600Y204750D02*Y200250D01*
X224150Y202500D02*Y200250D01*
X224900Y199500D01*
X226400D01*
X227150Y200250D01*
Y202500D02*Y200250D01*
X229700Y201750D02*Y199500D01*
Y201750D02*X230450Y202500D01*
X231200D01*
X231950Y201750D01*
Y199500D01*
X228950Y202500D02*X229700Y201750D01*
X233750Y205500D02*Y199500D01*
Y201750D02*X236000Y199500D01*
X233750Y201750D02*X235250Y203250D01*
X238550Y201750D02*Y199500D01*
Y201750D02*X239300Y202500D01*
X240050D01*
X240800Y201750D01*
Y199500D01*
X237800Y202500D02*X238550Y201750D01*
X242600D02*Y200250D01*
Y201750D02*X243350Y202500D01*
X244850D01*
X245600Y201750D01*
Y200250D01*
X244850Y199500D02*X245600Y200250D01*
X243350Y199500D02*X244850D01*
X242600Y200250D02*X243350Y199500D01*
X247400Y202500D02*Y200250D01*
X248150Y199500D01*
X248900D01*
X249650Y200250D01*
Y202500D02*Y200250D01*
X250400Y199500D01*
X251150D01*
X251900Y200250D01*
Y202500D02*Y200250D01*
X254450Y201750D02*Y199500D01*
Y201750D02*X255200Y202500D01*
X255950D01*
X256700Y201750D01*
Y199500D01*
X253700Y202500D02*X254450Y201750D01*
X258500Y205500D02*X259250Y204750D01*
Y200250D01*
X258500Y199500D02*X259250Y200250D01*
X263750Y202500D02*X266750D01*
X271250Y205500D02*Y199500D01*
Y205500D02*X274250D01*
X271250Y202800D02*X273500D01*
X278300Y202500D02*X279050Y201750D01*
X276800Y202500D02*X278300D01*
X276050Y201750D02*X276800Y202500D01*
X276050Y201750D02*Y200250D01*
X276800Y199500D01*
X279050Y202500D02*Y200250D01*
X279800Y199500D01*
X276800D02*X278300D01*
X279050Y200250D01*
X281600Y205500D02*Y199500D01*
Y200250D02*X282350Y199500D01*
X283850D01*
X284600Y200250D01*
Y201750D02*Y200250D01*
X283850Y202500D02*X284600Y201750D01*
X282350Y202500D02*X283850D01*
X281600Y201750D02*X282350Y202500D01*
X287150Y201750D02*Y199500D01*
Y201750D02*X287900Y202500D01*
X289400D01*
X286400D02*X287150Y201750D01*
G54D106*X291200Y204000D02*Y203850D01*
G54D105*Y201750D02*Y199500D01*
X293450Y202500D02*X295700D01*
X292700Y201750D02*X293450Y202500D01*
X292700Y201750D02*Y200250D01*
X293450Y199500D01*
X295700D01*
X299750Y202500D02*X300500Y201750D01*
X298250Y202500D02*X299750D01*
X297500Y201750D02*X298250Y202500D01*
X297500Y201750D02*Y200250D01*
X298250Y199500D01*
X300500Y202500D02*Y200250D01*
X301250Y199500D01*
X298250D02*X299750D01*
X300500Y200250D01*
X303800Y205500D02*Y200250D01*
X304550Y199500D01*
X303050Y203250D02*X304550D01*
G54D106*X306050Y204000D02*Y203850D01*
G54D105*Y201750D02*Y199500D01*
X307550Y201750D02*Y200250D01*
Y201750D02*X308300Y202500D01*
X309800D01*
X310550Y201750D01*
Y200250D01*
X309800Y199500D02*X310550Y200250D01*
X308300Y199500D02*X309800D01*
X307550Y200250D02*X308300Y199500D01*
X313100Y201750D02*Y199500D01*
Y201750D02*X313850Y202500D01*
X314600D01*
X315350Y201750D01*
Y199500D01*
X312350Y202500D02*X313100Y201750D01*
X320600Y205500D02*Y199500D01*
X322550Y205500D02*X323600Y204450D01*
Y200550D01*
X322550Y199500D02*X323600Y200550D01*
X319850Y199500D02*X322550D01*
X319850Y205500D02*X322550D01*
X326150Y201750D02*Y199500D01*
Y201750D02*X326900Y202500D01*
X328400D01*
X325400D02*X326150Y201750D01*
X332450Y202500D02*X333200Y201750D01*
X330950Y202500D02*X332450D01*
X330200Y201750D02*X330950Y202500D01*
X330200Y201750D02*Y200250D01*
X330950Y199500D01*
X333200Y202500D02*Y200250D01*
X333950Y199500D01*
X330950D02*X332450D01*
X333200Y200250D01*
X335750Y202500D02*Y200250D01*
X336500Y199500D01*
X337250D01*
X338000Y200250D01*
Y202500D02*Y200250D01*
X338750Y199500D01*
X339500D01*
X340250Y200250D01*
Y202500D02*Y200250D01*
G54D106*X342050Y204000D02*Y203850D01*
G54D105*Y201750D02*Y199500D01*
X344300Y201750D02*Y199500D01*
Y201750D02*X345050Y202500D01*
X345800D01*
X346550Y201750D01*
Y199500D01*
X343550Y202500D02*X344300Y201750D01*
X350600Y202500D02*X351350Y201750D01*
X349100Y202500D02*X350600D01*
X348350Y201750D02*X349100Y202500D01*
X348350Y201750D02*Y200250D01*
X349100Y199500D01*
X350600D01*
X351350Y200250D01*
X348350Y198000D02*X349100Y197250D01*
X350600D01*
X351350Y198000D01*
Y202500D02*Y198000D01*
M02*
