M48
INCH
T71C0.020
T70C0.038
T69C0.045
T68C0.110
T67C0.125
T66C0.042
T65C0.128
T64C0.030
T63C0.129
T62C0.048
%
T71
X006300Y005100
X006800Y004750
X008450Y005450
X008900Y005450
X014150Y009950
X014150Y005100
X014650Y009600
X014650Y004750
X017200Y009600
X017200Y005100
X017550Y004750
X017600Y009950
X020150Y009950
X020150Y005100
X020650Y009600
X020650Y004750
X026150Y009950
X026150Y005100
X026650Y009600
X026650Y004750
X046700Y005200
X049150Y005200
X049150Y004750
X049600Y005200
X049600Y004750
X051300Y007300
X051800Y006950
X053000Y005150
X053000Y004600
X053550Y006250
X053550Y005700
X053550Y005150
X053550Y004600
X054100Y006250
X054100Y005700
X054100Y005150
X054100Y004600
X054650Y005150
X054650Y004600
T64
X005300Y006700
X005800Y005700
X006300Y006700
X006800Y005700
X007300Y006700
X007800Y005700
X013150Y009000
X013150Y006700
X013650Y008000
X013650Y005700
X014150Y009000
X014150Y006700
X014650Y008000
X014650Y005700
X015150Y009000
X015150Y006700
X015650Y008000
X015650Y005700
X019150Y009000
X019150Y006700
X019650Y008000
X019650Y005700
X020150Y009000
X020150Y006700
X020650Y008000
X020650Y005700
X021150Y009000
X021150Y006700
X021650Y008000
X021650Y005700
X025150Y009000
X025150Y006700
X025650Y008000
X025650Y005700
X026150Y009000
X026150Y006700
X026650Y008000
X026650Y005700
X027150Y009000
X027150Y006700
X027650Y008000
X027650Y005700
X050300Y009000
X050800Y008000
X051300Y009000
X051800Y008000
X052300Y009000
X052800Y008000
T70
X035200Y012900
X035200Y010900
X035200Y008900
X035200Y005900
X038200Y012900
X038200Y010900
X038200Y008900
X038200Y005900
X039600Y012900
X039600Y010900
X039600Y008900
X039600Y005900
X042600Y012900
X042600Y010900
X042600Y008900
X042600Y005900
T66
X004050Y010150
X009050Y010150
T69
X052050Y003300
X053050Y003300
X054050Y003300
T62
X005550Y012600
X007550Y012600
X045350Y012600
X047350Y012600
T68
X055350Y010500
X057250Y011700
T67
X057250Y009300
T65
X004550Y003200
X008550Y003200
X012400Y011500
X012400Y003200
X016400Y011500
X016400Y003200
X018400Y011500
X018400Y003200
X022400Y011500
X022400Y003200
X024400Y011500
X024400Y003200
X028400Y011500
X028400Y003200
X049550Y011500
X053550Y011500
T63
X001700Y013000
X001700Y005500
X031700Y013000
X031700Y005500
X061700Y013000
X061700Y005500
M30
