G04 start of page 6 for group -4063 idx -4063 *
G04 Title: (unknown), componentmask *
G04 Creator: pcb 20140316 *
G04 CreationDate: Thu 29 Nov 2018 09:53:53 PM GMT UTC *
G04 For: railfan *
G04 Format: Gerber/RS-274X *
G04 PCB-Dimensions (mil): 6340.00 1470.00 *
G04 PCB-Coordinate-Origin: lower left *
%MOIN*%
%FSLAX25Y25*%
%LNTOPMASK*%
%ADD85R,0.0420X0.0420*%
%ADD84R,0.0520X0.0520*%
%ADD83R,0.0572X0.0572*%
%ADD82R,0.0690X0.0690*%
%ADD81C,0.0750*%
%ADD80C,0.0900*%
%ADD79C,0.1700*%
%ADD78C,0.1950*%
%ADD77C,0.1010*%
%ADD76C,0.1500*%
%ADD75C,0.0760*%
%ADD74C,0.2997*%
%ADD73C,0.0860*%
%ADD72C,0.0001*%
G54D72*G36*
X71200Y130300D02*Y121700D01*
X79800D01*
Y130300D01*
X71200D01*
G37*
G54D73*X55500Y126000D03*
G54D74*X17000Y130000D03*
G54D75*X53000Y67000D03*
X58000Y57000D03*
X63000Y67000D03*
X68000Y57000D03*
X73000Y67000D03*
G54D74*X17000Y55000D03*
G54D76*X45500Y32000D03*
G54D72*G36*
X35450Y106550D02*Y96450D01*
X45550D01*
Y106550D01*
X35450D01*
G37*
G54D75*X78000Y57000D03*
G54D77*X90500Y101500D03*
G54D76*X85500Y32000D03*
X124000D03*
X164000D03*
X184000D03*
G54D75*X131500Y67000D03*
X136500Y57000D03*
X141500Y67000D03*
X146500Y57000D03*
X151500Y67000D03*
X156500Y57000D03*
Y80000D03*
X146500D03*
X141500Y90000D03*
X136500Y80000D03*
X131500Y90000D03*
G54D76*X124000Y115000D03*
G54D75*X151500Y90000D03*
G54D76*X164000Y115000D03*
X184000D03*
G54D75*X216500Y80000D03*
X211500Y90000D03*
G54D76*X224000Y115000D03*
G54D75*X206500Y80000D03*
X201500Y90000D03*
X196500Y80000D03*
X191500Y90000D03*
Y67000D03*
X196500Y57000D03*
X201500Y67000D03*
X206500Y57000D03*
X216500D03*
G54D76*X224000Y32000D03*
G54D75*X211500Y67000D03*
G54D74*X617000Y130000D03*
Y55000D03*
G54D78*X572500Y93000D03*
G54D79*Y117000D03*
X553500Y105000D03*
G54D76*X535500Y115000D03*
G54D80*X520500Y33000D03*
X530500D03*
G54D72*G36*
X536000Y37500D02*Y28500D01*
X545000D01*
Y37500D01*
X536000D01*
G37*
G54D75*X528000Y80000D03*
X523000Y90000D03*
X513000D03*
X503000D03*
G54D81*X426000Y89000D03*
G54D75*X518000Y80000D03*
X508000D03*
G54D72*G36*
X422250Y62750D02*Y55250D01*
X429750D01*
Y62750D01*
X422250D01*
G37*
G54D76*X495500Y115000D03*
G54D72*G36*
X469200Y130300D02*Y121700D01*
X477800D01*
Y130300D01*
X469200D01*
G37*
G54D73*X453500Y126000D03*
G54D81*X426000Y109000D03*
Y129000D03*
X396000D03*
Y109000D03*
X382000D03*
Y129000D03*
X396000Y89000D03*
Y59000D03*
G54D72*G36*
X378250Y62750D02*Y55250D01*
X385750D01*
Y62750D01*
X378250D01*
G37*
G54D81*X382000Y89000D03*
X352000Y109000D03*
Y129000D03*
G54D74*X317000Y130000D03*
G54D76*X284000Y115000D03*
G54D81*X352000Y89000D03*
Y59000D03*
G54D74*X317000Y55000D03*
G54D75*X276500Y80000D03*
X271500Y90000D03*
X266500Y80000D03*
X261500Y90000D03*
X256500Y80000D03*
X251500Y90000D03*
G54D76*X244000Y115000D03*
Y32000D03*
G54D75*X251500Y67000D03*
X261500D03*
X271500D03*
X256500Y57000D03*
X266500D03*
X276500D03*
G54D76*X284000Y32000D03*
G54D82*X568693Y62500D02*X574992D01*
X549008D02*X555307D01*
G54D83*X521457Y62893D02*Y62107D01*
X528543Y62893D02*Y62107D01*
X496957Y32893D02*Y32107D01*
X504043Y32893D02*Y32107D01*
Y22393D02*Y21607D01*
X496957Y22393D02*Y21607D01*
G54D84*X452200Y47900D02*Y42750D01*
X462000Y47900D02*Y42750D01*
X471800Y47900D02*Y42750D01*
G54D85*X478500Y60100D02*Y58900D01*
X491400Y60100D02*Y58900D01*
G54D84*X452200Y26250D02*Y21100D01*
X462000Y26250D02*Y21100D01*
X471800Y26250D02*Y21100D01*
G54D83*X9607Y7457D02*X10393D01*
X9607Y14543D02*X10393D01*
X28107Y82457D02*X28893D01*
X28107Y89543D02*X28893D01*
M02*
